<svg width="140" height="140" viewBox="0 0 140 140" fill="none" xmlns="http://www.w3.org/2000/svg"><mask id="a" style="mask-type:alpha" maskUnits="userSpaceOnUse" x="37" y="30" width="73" height="72"><path fill-rule="evenodd" clip-rule="evenodd" d="M73.523 30.049c19.799 0 35.848 16.03 35.848 35.802 0 19.774-16.05 35.804-35.848 35.804-19.799 0-35.849-16.03-35.849-35.804 0-19.772 16.05-35.802 35.849-35.802z" fill="#fff"/></mask><g mask="url(#a)"><path fill-rule="evenodd" clip-rule="evenodd" d="M33.508 25.882h80.03v79.94h-80.03v-79.94z" fill="#CBF7EE"/></g><mask id="b" style="mask-type:alpha" maskUnits="userSpaceOnUse" x="33" y="25" width="95" height="95"><path fill-rule="evenodd" clip-rule="evenodd" d="M73.607 95.892c16.769 0 30.413-13.625 30.413-30.374S90.376 35.144 73.607 35.144c-16.77 0-30.414 13.625-30.414 30.374s13.644 30.374 30.414 30.374zm47.862 10.819v-.001l5.945 5.939v6.608h-6.617l-5.945-5.938-16.66-16.64c-6.775 5.342-15.304 8.56-24.585 8.56-21.931 0-39.772-17.819-39.772-39.72 0-21.903 17.84-39.721 39.772-39.721 21.93 0 39.77 17.818 39.77 39.72 0 9.27-3.22 17.788-8.569 24.554l16.661 16.639z" fill="#fff"/></mask><g mask="url(#b)"><path fill-rule="evenodd" clip-rule="evenodd" d="M29.669 21.631H131.58v101.793H29.669V21.631z" fill="#23E5DB"/></g><mask id="c" style="mask-type:alpha" maskUnits="userSpaceOnUse" x="54" y="49" width="20" height="20"><path fill-rule="evenodd" clip-rule="evenodd" d="M64.123 62.2a2.821 2.821 0 002.82-2.816 2.821 2.821 0 00-2.82-2.816 2.821 2.821 0 00-2.82 2.816 2.821 2.821 0 002.82 2.817zm0-12.202c5.192 0 9.4 4.201 9.4 9.387 0 5.184-4.208 9.387-9.4 9.387-5.191 0-9.4-4.203-9.4-9.387 0-5.186 4.209-9.387 9.4-9.387z" fill="#fff"/></mask><g mask="url(#c)"><path fill-rule="evenodd" clip-rule="evenodd" d="M50.557 45.831H77.69V72.94H50.557V45.83z" fill="#002F34"/></g><mask id="d" style="mask-type:alpha" maskUnits="userSpaceOnUse" x="79" y="53" width="10" height="10"><path fill-rule="evenodd" clip-rule="evenodd" d="M84.385 55.742l1.993-1.99h2.603v2.599l-1.993 1.99 1.993 1.99v2.6h-2.603l-1.993-1.99-1.993 1.99h-2.603v-2.6l1.993-1.99-1.993-1.99v-2.599h2.603l1.993 1.99z" fill="#fff"/></mask><g mask="url(#d)"><path fill-rule="evenodd" clip-rule="evenodd" d="M75.622 49.585h17.525v17.513H75.622V49.585z" fill="#002F34"/></g><mask id="e" style="mask-type:alpha" maskUnits="userSpaceOnUse" x="59" y="74" width="31" height="11"><path fill-rule="evenodd" clip-rule="evenodd" d="M73.792 80.848c4.516.077 9.01-2.155 13.341-6.651l2.683 2.633c-4.986 5.175-10.292 7.798-15.774 7.798-.122 0-.244-.002-.366-.005-8.239-.175-13.71-6.25-13.94-6.51l2.79-2.516-.003-.003c.046.05 4.67 5.132 11.27 5.254z" fill="#fff"/></mask><g mask="url(#e)"><path fill-rule="evenodd" clip-rule="evenodd" d="M55.57 70.03h38.412v18.764H55.57V70.03z" fill="#002F34"/></g><mask id="f" style="mask-type:alpha" maskUnits="userSpaceOnUse" x="16" y="20" width="24" height="24"><path fill-rule="evenodd" clip-rule="evenodd" d="M28.074 20.68l11.517 11.5-11.517 11.503-11.516-11.502L28.074 20.68zm0 8.07l-3.435 3.431 3.435 3.431 3.435-3.43-3.435-3.431z" fill="#fff"/></mask><g mask="url(#f)"><path fill-rule="evenodd" clip-rule="evenodd" d="M12.391 16.513h31.366V47.85H12.391V16.513z" fill="#FFCE32"/></g><mask id="g" style="mask-type:alpha" maskUnits="userSpaceOnUse" x="7" y="41" width="20" height="20"><path fill-rule="evenodd" clip-rule="evenodd" d="M15.625 50.997l1.617 1.615 1.616-1.615-1.616-1.615-1.617 1.615zm1.617 9.686l-9.699-9.685 9.699-9.686 9.698 9.686-9.698 9.685z" fill="#fff"/></mask><g mask="url(#g)"><path fill-rule="evenodd" clip-rule="evenodd" d="M3.377 37.145h27.73V64.85H3.377V37.145z" fill="#FFCE32"/></g><mask id="h" style="mask-type:alpha" maskUnits="userSpaceOnUse" x="109" y="65" width="24" height="24"><path fill-rule="evenodd" clip-rule="evenodd" d="M120.659 65.35l11.424 11.409-11.424 11.409-11.424-11.41 11.424-11.409zm0 8.07l-3.343 3.339 3.343 3.338 3.343-3.338-3.343-3.34z" fill="#fff"/></mask><g mask="url(#h)"><path fill-rule="evenodd" clip-rule="evenodd" d="M105.068 61.183h31.182v31.152h-31.182V61.183z" fill="#FFCE32"/></g><mask id="i" style="mask-type:alpha" maskUnits="userSpaceOnUse" x="37" y="93" width="24" height="24"><path fill-rule="evenodd" clip-rule="evenodd" d="M49.178 93.246l11.425 11.41-11.425 11.409-11.424-11.409 11.424-11.41zm0 8.07l-3.343 3.34 3.343 3.338 3.343-3.338-3.343-3.34z" fill="#fff"/></mask><g mask="url(#i)"><path fill-rule="evenodd" clip-rule="evenodd" d="M33.587 89.08H64.77v31.151H33.587V89.08z" fill="#FFCE32"/></g></svg>