<svg xmlns="http://www.w3.org/2000/svg" width="48" height="48"><g fill="none" fill-rule="evenodd"><path fill="#CEDDFF" d="M38 20.8C38 30.3 30.3 38 20.8 38S3.6 30.3 3.6 20.8 11.3 3.6 20.8 3.6 38 11.3 38 20.8"/><path fill="#6C99FF" d="M20.8 38V3.6C32.267 8.734 38 14.467 38 20.8c0 6.333-5.733 12.066-17.2 17.2z"/><path fill="#002F34" d="M20.94 34.2c-7.311 0-13.26-5.948-13.26-13.26 0-7.312 5.949-13.26 13.26-13.26S34.2 13.628 34.2 20.94c0 7.312-5.949 13.26-13.26 13.26zm20.868 4.723l-7.264-7.264A17.24 17.24 0 0038.28 20.94c0-9.561-7.779-17.34-17.34-17.34S3.6 11.379 3.6 20.94s7.779 17.34 17.34 17.34a17.24 17.24 0 0010.719-3.736l7.264 7.264 2.592 2.592H44.4v-2.885l-2.592-2.592z"/><path fill="#002F34" d="M17.2 14a4 4 0 100 8 4 4 0 000-8m0 2.8a1.201 1.201 0 010 2.4 1.201 1.201 0 010-2.4m6.4.733l2.867 2.867H27.6v-1.133L24.733 16.4H23.6z"/><path fill="#002F34" d="M27.6 17.533L24.733 20.4H23.6v-1.133l2.867-2.867H27.6zM20.888 29.2c-.052 0-.104 0-.156-.002-3.506-.067-5.835-2.397-5.932-2.496l1.187-.965-.593.483.592-.484c.02.02 1.987 1.968 4.795 2.015 1.922.03 3.834-.827 5.677-2.551l1.142 1.01c-2.122 1.984-4.38 2.99-6.712 2.99"/></g></svg>